ffmpeg version 3.4.8-0ubuntu0.2 Copyright (c) 2000-2020 the FFmpeg developers
  built with gcc 7 (Ubuntu 7.5.0-3ubuntu1~18.04)
  configuration: --prefix=/usr --extra-version=0ubuntu0.2 --toolchain=hardened --libdir=/usr/lib/x86_64-linux-gnu --incdir=/usr/include/x86_64-linux-gnu --enable-gpl --disable-stripping --enable-avresample --enable-avisynth --enable-gnutls --enable-ladspa --enable-libass --enable-libbluray --enable-libbs2b --enable-libcaca --enable-libcdio --enable-libflite --enable-libfontconfig --enable-libfreetype --enable-libfribidi --enable-libgme --enable-libgsm --enable-libmp3lame --enable-libmysofa --enable-libopenjpeg --enable-libopenmpt --enable-libopus --enable-libpulse --enable-librubberband --enable-librsvg --enable-libshine --enable-libsnappy --enable-libsoxr --enable-libspeex --enable-libssh --enable-libtheora --enable-libtwolame --enable-libvorbis --enable-libvpx --enable-libwavpack --enable-libwebp --enable-libx265 --enable-libxml2 --enable-libxvid --enable-libzmq --enable-libzvbi --enable-omx --enable-openal --enable-opengl --enable-sdl2 --enable-libdc1394 --enable-libdrm --enable-libiec61883 --enable-chromaprint --enable-frei0r --enable-libopencv --enable-libx264 --enable-shared
  libavutil      55. 78.100 / 55. 78.100
  libavcodec     57.107.100 / 57.107.100
  libavformat    57. 83.100 / 57. 83.100
  libavdevice    57. 10.100 / 57. 10.100
  libavfilter     6.107.100 /  6.107.100
  libavresample   3.  7.  0 /  3.  7.  0
  libswscale      4.  8.100 /  4.  8.100
  libswresample   2.  9.100 /  2.  9.100
  libpostproc    54.  7.100 / 54.  7.100
[rawvideo @ 0x563b83073a20] Estimating duration from bitrate, this may be inaccurate
Input #0, rawvideo, from '../../SVC-Encoder-20220109T061506Z-001/SVC-Encoder/Dataset/RollerCoaster/ERP_8x8/tile_yuv/Tile_46_480x240.yuv':
  Duration: 00:00:10.00, start: 0.000000, bitrate: 41472 kb/s
    Stream #0:0: Video: rawvideo (I420 / 0x30323449), yuv420p, 480x240, 41472 kb/s, 30 tbr, 30 tbn, 30 tbc
Stream mapping:
  Stream #0:0 -> #0:0 (rawvideo (native) -> h264 (libx264))
Press [q] to stop, [?] for help
[libx264 @ 0x563b83080c60] using cpu capabilities: MMX2 SSE2Fast LZCNT SSSE3 SSE4.2 AVX
[libx264 @ 0x563b83080c60] profile High, level 2.1
Output #0, rawvideo, to 'RollerCoaster_Tile_46_480x240_x264_QP_32.h264':
  Metadata:
    encoder         : Lavf57.83.100
    Stream #0:0: Video: h264 (libx264), yuv420p, 480x240, q=-1--1, 30 fps, 30 tbn, 30 tbc
    Metadata:
      encoder         : Lavc57.107.100 libx264
    Side data:
      cpb: bitrate max/min/avg: 0/0/0 buffer size: 0 vbv_delay: -1
frame=  155 fps=0.0 q=38.0 PSNR=Y:nan U:nan V:nan *:nan size=      60kB time=00:00:03.73 bitrate= 131.3kbits/s speed=7.45x    frame=  300 fps=283 q=38.0 LPSNR=Y:inf U:inf V:inf *:inf size=     151kB time=00:00:09.93 bitrate= 124.6kbits/s speed=9.37x    
video:151kB audio:0kB subtitle:0kB other streams:0kB global headers:0kB muxing overhead: 0.000000%
[libx264 @ 0x563b83080c60] frame I:2     Avg QP:30.89  size:  7534  PSNR Mean Y:36.93 U:42.34 V:44.04 Avg:38.20 Global:38.12
[libx264 @ 0x563b83080c60] frame P:77    Avg QP:32.96  size:  1167  PSNR Mean Y:35.23 U:42.63 V:43.90 Avg:36.66 Global:36.64
[libx264 @ 0x563b83080c60] frame B:221   Avg QP:37.53  size:   225  PSNR Mean Y:35.00 U:42.55 V:43.88 Avg:36.44 Global:36.42
[libx264 @ 0x563b83080c60] consecutive B-frames:  1.0%  2.0%  1.0% 96.0%
[libx264 @ 0x563b83080c60] mb I  I16..4: 12.7% 75.1% 12.2%
[libx264 @ 0x563b83080c60] mb P  I16..4:  0.8%  3.1%  0.5%  P16..4: 45.1% 10.1%  1.6%  0.0%  0.0%    skip:38.6%
[libx264 @ 0x563b83080c60] mb B  I16..4:  0.0%  0.1%  0.0%  B16..8: 26.0%  1.9%  0.2%  direct: 0.1%  skip:71.6%  L0:38.5% L1:60.7% BI: 0.8%
[libx264 @ 0x563b83080c60] 8x8 transform intra:71.5% inter:78.7%
[libx264 @ 0x563b83080c60] coded y,uvDC,uvAC intra: 56.0% 75.5% 26.8% inter: 4.4% 4.3% 0.0%
[libx264 @ 0x563b83080c60] i16 v,h,dc,p: 13% 35% 25% 26%
[libx264 @ 0x563b83080c60] i8 v,h,dc,ddl,ddr,vr,hd,vl,hu:  5% 23% 20%  3% 16% 10%  7%  2% 15%
[libx264 @ 0x563b83080c60] i4 v,h,dc,ddl,ddr,vr,hd,vl,hu:  7% 24% 30%  2% 12%  8%  3%  1% 12%
[libx264 @ 0x563b83080c60] i8c dc,h,v,p: 49% 31%  8% 11%
[libx264 @ 0x563b83080c60] Weighted P-Frames: Y:0.0% UV:0.0%
[libx264 @ 0x563b83080c60] ref P L0: 59.2% 15.5% 16.1%  9.2%
[libx264 @ 0x563b83080c60] ref B L0: 91.9%  7.0%  1.1%
[libx264 @ 0x563b83080c60] ref B L1: 93.2%  6.8%
[libx264 @ 0x563b83080c60] PSNR Mean Y:35.072 U:42.572 V:43.884 Avg:36.508 Global:36.487 kb/s:123.75
